<svg width="14" height="13" viewBox="0 0 14 13" fill="none" xmlns="http://www.w3.org/2000/svg">
<path d="M6.70114 0.938874C6.82342 0.691152 7.17667 0.691152 7.29895 0.938874L8.98256 4.34969C9.03108 4.44798 9.12481 4.51613 9.23326 4.53198L12.9988 5.08237C13.2721 5.12232 13.381 5.45826 13.1832 5.65098L10.459 8.30433C10.3804 8.38091 10.3445 8.49129 10.363 8.59947L11.0059 12.3475C11.0526 12.6199 10.7667 12.8275 10.5222 12.6989L7.1552 10.9283C7.05807 10.8772 6.94202 10.8772 6.8449 10.9283L3.47792 12.6989C3.23338 12.8275 2.94753 12.6199 2.99424 12.3475L3.63708 8.59947C3.65563 8.49129 3.61974 8.38091 3.54112 8.30433L0.816939 5.65098C0.619074 5.45826 0.728002 5.12232 1.00131 5.08237L4.76684 4.53198C4.87529 4.51613 4.96901 4.44798 5.01753 4.34969L6.70114 0.938874Z" fill="#070C19"/>
</svg>
